PathFileType	4	(X/Y/Z)	 s08c0203.trc
DataRate	CameraRate	NumFrames	NumMarkers	Units	OrigDataRate	OrigDataStartFrame	OrigNumFrames
200	200	7	50	mm	200	251	2000
Frame#	Time	racr			lacr			c7			jug			rlel			rdr			llel			ldr			s2			lic			ric			lasi			rasi			rpsi			lpsi			rgt			lgt			rth1			rth2			rth3			rth4			rlfc			rmfc			rsh1			rsh2			rsh3			rsh4			rlmal			rmmal			rcal			rtoe			rmt5			lth1			lth2			lth4			lth3			llfc			lmfc			llmal			lmmal			lcal			lmt5			lsh1			lsh2			lsh3			lsh4			ltoe			SBIKE			LBIKE			RBIKE			
		X1	Y1	Z1	X2	Y2	Z2	X3	Y3	Z3	X4	Y4	Z4	X5	Y5	Z5	X6	Y6	Z6	X7	Y7	Z7	X8	Y8	Z8	X9	Y9	Z9	X10	Y10	Z10	X11	Y11	Z11	X12	Y12	Z12	X13	Y13	Z13	X14	Y14	Z14	X15	Y15	Z15	X16	Y16	Z16	X17	Y17	Z17	X18	Y18	Z18	X19	Y19	Z19	X20	Y20	Z20	X21	Y21	Z21	X22	Y22	Z22	X23	Y23	Z23	X24	Y24	Z24	X25	Y25	Z25	X26	Y26	Z26	X27	Y27	Z27	X28	Y28	Z28	X29	Y29	Z29	X30	Y30	Z30	X31	Y31	Z31	X32	Y32	Z32	X33	Y33	Z33	X34	Y34	Z34	X35	Y35	Z35	X36	Y36	Z36	X37	Y37	Z37	X38	Y38	Z38	X39	Y39	Z39	X40	Y40	Z40	X41	Y41	Z41	X42	Y42	Z42	X43	Y43	Z43	X44	Y44	Z44	X45	Y45	Z45	X46	Y46	Z46	X47	Y47	Z47	X48	Y48	Z48	X49	Y49	Z49	X50	Y50	Z50	
251	1.2550	481.608146	1382.877874	-44.504126	484.166134	1387.169254	-384.961719	465.224790	1440.384531	-217.808464	447.109915	1284.908131	-209.105839	547.619963	1137.434584	31.831697	757.704896	929.850380	-50.440939	575.541315	1151.495563	-469.005374	760.280923	925.234001	-417.085827	-82.876662	1206.554802	-246.010304	102.776933	1170.384160	-377.003010	68.958938	1214.157541	-73.091211	116.357630	1115.197156	-345.052019	87.475472	1152.690303	-103.524421	-55.551941	1251.614898	-195.805196	-40.825150	1243.323662	-289.821471	-14.084842	1118.834191	-33.134230	7.324188	1062.436648	-409.773924	132.228665	1026.923428	-27.243863	218.774556	1006.752596	-27.427757	282.087005	946.819460	-32.409659	235.872824	1037.913880	-38.499741	377.904825	875.282854	-51.811889	361.867561	864.293224	-159.696154	316.062217	760.420012	-23.797878	311.646589	672.385713	-44.809376	264.760438	600.282088	-50.914225	338.162222	669.474911	-75.843827	224.255186	488.873847	-65.497917	236.867462	514.578583	-150.319048	153.802816	437.024067	-107.749273	441.495859	518.712704	-101.135849	364.680285	460.827901	-35.874902	37.529700	930.147033	-426.627492	74.042688	850.755269	-420.903740	108.708010	856.896490	-410.056671	64.890845	762.398866	-417.053831	79.445416	637.375903	-389.955028	70.000087	615.648798	-288.986759	-1.214828	222.825449	-395.411624	13.862735	247.512405	-308.517553	-62.782055	173.577211	-356.928638	150.831959	190.058434	-416.797631	52.756096	511.064140	-420.487798	54.965971	427.160387	-401.036080	20.313045	346.397369	-406.219090	72.431638	428.037089	-366.505458	217.029572	245.110414	-346.819039	-203.599659	916.430974	-224.110030	-5.738334	83.584202	-426.492040	-8.720690	80.137085	-28.189758	
252	1.2600	481.769357	1382.912386	-44.619257	484.510784	1387.135376	-384.723942	465.313181	1440.283080	-217.731094	447.216581	1284.838352	-209.053686	547.509284	1137.393605	31.889305	757.738700	929.976772	-50.466945	575.114381	1151.196408	-469.434830	760.250275	925.358435	-417.163011	-82.867883	1206.577477	-246.043891	102.795425	1170.308396	-376.982777	68.921931	1214.192714	-73.139695	116.373296	1115.149305	-345.040172	87.456165	1152.689694	-103.524113	-55.519846	1251.620902	-195.846077	-40.812883	1243.322239	-289.855149	-14.115312	1118.866608	-33.146187	7.333519	1062.410148	-409.788023	132.198735	1026.934883	-27.254992	218.768944	1006.777162	-27.426819	282.146674	946.857318	-32.305941	235.857686	1037.934911	-38.474151	378.150046	875.317659	-52.034081	361.875829	864.322048	-159.609847	316.031583	760.460010	-23.764744	311.646010	672.418412	-44.810284	264.609700	600.364827	-50.826999	338.121096	669.490549	-75.806531	224.190129	488.930444	-65.506112	236.802885	514.632624	-150.318256	153.747084	437.082165	-107.765170	441.441231	518.749742	-101.105599	364.618035	460.863688	-35.865942	37.439991	929.953808	-426.395094	74.104332	850.752523	-420.879924	108.762512	856.899734	-410.035314	65.098710	762.231152	-416.408664	79.590980	637.427337	-389.900421	70.090688	615.641962	-289.019477	-1.132144	222.873602	-395.405889	14.006471	247.478762	-308.522393	-62.703799	173.616480	-356.919291	150.898406	190.026205	-416.833344	52.881464	511.049189	-420.454817	55.073564	427.191143	-401.030859	20.418349	346.404058	-406.188017	72.547339	428.025448	-366.459821	217.150578	245.020327	-346.807264	-203.547255	916.492871	-224.121729	-5.733173	83.583873	-426.496539	-8.711712	80.131971	-28.185576	
253	1.2650	481.943821	1382.929573	-44.743160	484.796647	1387.000494	-384.525110	465.419281	1440.152598	-217.677495	447.303535	1284.750215	-208.971481	547.413981	1137.321385	31.950961	757.759078	930.069142	-50.451794	574.762579	1150.917329	-469.877282	760.174421	925.430155	-417.270832	-82.842896	1206.589019	-246.096205	102.835184	1170.254193	-377.025628	68.883696	1214.211455	-73.174242	116.362522	1115.132903	-345.016128	87.466138	1152.712599	-103.531740	-55.474380	1251.639422	-195.890782	-40.771007	1243.320371	-289.915910	-14.121631	1118.879252	-33.165928	7.331039	1062.370912	-409.811162	132.180718	1026.962425	-27.251157	218.742210	1006.808148	-27.419061	282.141223	946.882599	-32.254836	235.840504	1037.966123	-38.442835	378.139143	875.355554	-51.974758	361.887514	864.368545	-159.557199	316.042011	760.485334	-23.741664	311.583944	672.454415	-44.775299	264.591398	600.420500	-50.799617	338.114000	669.535933	-75.796481	224.127028	488.983442	-65.505539	236.758085	514.675124	-150.314777	153.684414	437.137732	-107.768551	441.379410	518.790354	-101.101194	364.543411	460.917514	-35.871020	37.454406	929.931459	-426.397691	74.149267	850.729854	-420.868543	108.802268	856.890722	-409.994900	65.202236	762.196010	-416.368159	79.737751	637.436605	-389.858081	70.213814	615.642084	-289.003365	-1.038413	222.891525	-395.373082	14.100097	247.478929	-308.487750	-62.644518	173.680964	-356.902668	150.968591	189.990452	-416.844519	53.018781	511.054739	-420.430478	55.194299	427.161880	-400.960924	20.529559	346.404873	-406.172184	72.644574	428.030623	-366.419169	217.238319	244.935732	-346.814059	-203.594020	916.435733	-224.129197	-5.733099	83.600746	-426.496248	-8.741135	80.155254	-28.168806	
254	1.2700	482.145040	1382.928787	-44.888092	485.121706	1386.775705	-384.461305	465.540374	1440.035745	-217.626134	447.404672	1284.614353	-208.969168	547.275058	1137.231004	31.997253	757.797627	930.203525	-50.452243	574.414268	1150.615543	-470.425817	760.108745	925.473254	-417.442227	-82.810086	1206.615308	-246.132401	102.840894	1170.195975	-377.040806	68.856169	1214.246433	-73.202726	116.330085	1115.026343	-344.923652	87.440709	1152.722985	-103.535931	-55.414077	1251.643892	-195.954881	-40.732176	1243.317088	-289.966490	-14.147947	1118.922029	-33.176827	7.331740	1062.337503	-409.837597	132.199696	1026.985796	-27.260710	218.742737	1006.833420	-27.403335	282.151881	946.915112	-32.231014	235.859720	1037.996329	-38.444077	378.125874	875.365792	-51.921963	361.899892	864.382006	-159.486201	316.022242	760.524733	-23.702761	311.551672	672.477507	-44.753394	264.542182	600.464153	-50.795379	338.080292	669.554440	-75.771768	223.991222	489.079350	-65.241019	236.709617	514.702203	-150.322078	153.625911	437.200900	-107.797564	441.331857	518.812514	-101.102905	364.476463	460.986844	-35.860946	37.458643	929.907969	-426.404573	74.201104	850.717788	-420.860736	108.836093	856.905486	-409.977480	65.293744	762.190932	-416.349897	79.864083	637.453028	-389.841748	70.296247	615.652148	-289.004239	-0.941442	222.911457	-395.358367	14.211130	247.493888	-308.465013	-62.570686	173.721726	-356.879127	151.060704	189.931639	-416.836082	53.151657	511.076854	-420.419662	55.326294	427.185923	-400.954495	20.655343	346.422819	-406.133536	72.738599	428.036494	-366.379304	217.351687	244.850142	-346.811370	-203.609589	916.469531	-224.158736	-5.732003	83.596553	-426.504585	-8.721157	80.131685	-28.189154	
255	1.2750	482.367988	1382.944441	-45.046571	485.420633	1386.564802	-384.327032	465.696193	1439.889120	-217.512894	447.538110	1284.441856	-208.910984	547.127175	1137.086076	32.055301	757.802053	930.339819	-50.428564	574.032944	1150.324803	-471.027243	760.030530	925.492625	-417.645536	-82.780456	1206.643803	-246.183296	102.884063	1170.126629	-377.092487	68.861214	1214.279528	-73.244133	116.366334	1115.099473	-345.037531	87.475404	1152.736978	-103.530772	-55.338853	1251.696890	-196.023205	-40.680497	1243.335361	-290.041163	-14.142565	1118.958311	-33.198097	7.314135	1062.310541	-409.874427	132.195665	1027.032865	-27.275318	218.742509	1006.941537	-27.387092	282.132340	947.019904	-32.164152	235.858025	1038.038233	-38.429804	378.128105	875.407357	-51.872526	362.025197	865.764947	-162.814778	315.996795	760.529220	-23.664947	311.526819	672.482506	-44.773258	264.485904	600.520935	-50.744286	338.038914	669.572751	-75.730053	223.917920	489.131817	-65.237951	236.641126	514.764849	-150.351550	153.362940	437.528156	-107.545463	441.274578	518.856265	-101.091480	364.418764	461.034387	-35.863992	37.447448	929.886727	-426.438442	74.227911	850.717389	-420.845295	108.858570	856.918707	-409.962795	65.373112	762.166906	-416.322884	79.992431	637.422667	-389.839855	70.373696	615.662288	-288.993495	-0.867205	222.935082	-395.333015	14.331278	247.503357	-308.424563	-62.498827	173.790166	-356.869410	151.140084	189.881861	-416.842661	53.276745	511.098483	-420.397770	55.423703	427.187929	-400.896437	20.753493	346.467128	-406.156306	72.837241	428.070404	-366.362035	217.467643	244.727735	-346.794258	-203.557916	916.444302	-224.129451	-5.736068	83.597904	-426.499270	-8.721104	80.137116	-28.196164	
256	1.2800	482.573278	1382.890017	-45.248423	485.784882	1386.382505	-384.152744	465.918985	1439.727962	-217.415337	447.629495	1284.179125	-208.863247	546.929132	1136.894350	32.090118	757.821873	930.494384	-50.391732	573.733689	1150.025230	-471.566786	759.973969	925.483062	-417.831391	-82.728917	1206.688150	-246.227542	102.962383	1170.089205	-377.174310	68.842866	1214.323878	-73.300423	116.328128	1114.975784	-344.924032	87.456187	1152.779257	-103.522464	-55.235096	1251.738374	-196.092415	-40.615809	1243.348293	-290.083327	-14.147332	1119.071738	-33.217945	7.295423	1062.302515	-409.912208	132.212521	1027.120357	-27.281886	218.757795	1006.977445	-27.384651	282.119198	947.068982	-32.189372	235.884163	1038.092221	-38.422469	378.137016	875.422988	-51.811846	362.188027	866.861724	-165.379116	315.982142	760.560119	-23.649664	311.515429	672.520704	-44.703852	264.444720	600.547836	-50.761355	338.017029	669.602130	-75.709919	223.856924	489.193090	-65.245772	236.595921	514.824867	-150.351048	153.305428	437.616360	-107.595303	441.219424	518.888372	-101.071045	364.330800	461.107259	-35.860847	37.451148	929.874457	-426.454767	74.270995	850.707399	-420.844880	108.898354	856.923222	-409.947583	65.448507	762.179732	-416.323712	80.110004	637.488788	-389.796454	70.457427	615.675692	-288.990635	-0.771428	222.963111	-395.300587	14.446537	247.517305	-308.432658	-62.438060	173.844924	-356.839342	151.228018	189.823949	-416.835342	53.356364	511.111428	-420.390043	55.537418	427.214884	-400.857413	20.862799	346.473180	-406.118224	72.939083	428.059359	-366.321984	217.593333	244.632366	-346.801856	-203.576759	916.440638	-224.173537	-5.728817	83.589267	-426.503839	-8.734374	80.144998	-28.180054	
257	1.2850	482.796679	1382.730734	-45.465758	486.166226	1386.133649	-384.039797	466.144263	1439.549104	-217.405978	447.743004	1283.847169	-208.776572	546.715450	1136.666639	32.180288	757.952813	930.813903	-50.335886	573.461453	1149.670350	-472.129776	759.906339	925.510151	-418.035449	-82.657745	1206.740325	-246.307143	103.002142	1170.035015	-377.217163	68.858474	1214.382369	-73.311919	116.363130	1115.054318	-345.057129	87.491026	1152.803881	-103.558281	-55.123752	1251.793647	-196.151200	-40.571123	1243.372564	-290.147981	-14.146483	1119.222033	-33.197964	7.291675	1062.284875	-409.945560	132.239100	1027.159652	-27.297346	218.769419	1007.037010	-27.375645	282.165330	947.129703	-32.079161	235.902614	1038.133349	-38.408623	378.156441	875.455960	-51.759599	362.380566	867.705256	-167.266641	315.967486	760.603918	-23.601177	311.457347	672.537094	-44.696732	264.396848	600.591968	-50.729633	337.997576	669.637689	-75.688304	223.770472	489.256432	-65.247131	236.526915	514.878364	-150.327261	153.217006	437.701668	-107.567616	441.160661	518.943831	-101.089159	364.271142	461.153095	-35.854169	37.427068	929.862964	-426.476653	74.294134	850.708908	-420.847299	108.897011	856.951097	-409.945483	65.498936	762.161417	-416.302137	80.216416	637.507968	-389.803405	70.558708	615.695546	-289.015162	-0.672296	222.988963	-395.259344	14.568497	247.566615	-308.423923	-62.337258	173.930401	-356.801621	151.327087	189.749257	-416.809482	53.447596	511.152758	-420.373988	55.632204	427.235515	-400.869275	20.958051	346.499782	-406.110630	73.030464	428.084843	-366.323338	217.722254	244.518237	-346.817228	-203.546922	916.468838	-224.095534	-5.741202	83.599388	-426.493856	-8.737845	80.140125	-28.192508	
